ModelForces
version=1
nRows=4
nColumns=71
inDegrees=no

This file contains the forces exerted on a model during a simulation.

A force is a generalized force, meaning that it can be either a force (N) or a torque (Nm).

Units are S.I. units (second, meters, Newtons, ...)
Angles are in degrees.

endheader
time	semimem_r	semiten_r	bifemlh_r	bifemsh_r	sar_r	grac_r	rect_fem_r	vas_med_r	vas_int_r	vas_lat_r	med_gas_r	lat_gas_r	contactForce_femur_lat_meniscii_l.femur_lat_l.force.X	contactForce_femur_lat_meniscii_l.femur_lat_l.force.Y	contactForce_femur_lat_meniscii_l.femur_lat_l.force.Z	contactForce_femur_lat_meniscii_l.femur_lat_l.torque.X	contactForce_femur_lat_meniscii_l.femur_lat_l.torque.Y	contactForce_femur_lat_meniscii_l.femur_lat_l.torque.Z	contactForce_femur_lat_meniscii_l.meniscus_lat_l.force.X	contactForce_femur_lat_meniscii_l.meniscus_lat_l.force.Y	contactForce_femur_lat_meniscii_l.meniscus_lat_l.force.Z	contactForce_femur_lat_meniscii_l.meniscus_lat_l.torque.X	contactForce_femur_lat_meniscii_l.meniscus_lat_l.torque.Y	contactForce_femur_lat_meniscii_l.meniscus_lat_l.torque.Z	contactForce_femur_med_meniscii_l.femur_med_l.force.X	contactForce_femur_med_meniscii_l.femur_med_l.force.Y	contactForce_femur_med_meniscii_l.femur_med_l.force.Z	contactForce_femur_med_meniscii_l.femur_med_l.torque.X	contactForce_femur_med_meniscii_l.femur_med_l.torque.Y	contactForce_femur_med_meniscii_l.femur_med_l.torque.Z	contactForce_femur_med_meniscii_l.meniscus_med_l.force.X	contactForce_femur_med_meniscii_l.meniscus_med_l.force.Y	contactForce_femur_med_meniscii_l.meniscus_med_l.force.Z	contactForce_femur_med_meniscii_l.meniscus_med_l.torque.X	contactForce_femur_med_meniscii_l.meniscus_med_l.torque.Y	contactForce_femur_med_meniscii_l.meniscus_med_l.torque.Z	contactForce_femur_lat_meniscii_r.femur_lat_r.force.X	contactForce_femur_lat_meniscii_r.femur_lat_r.force.Y	contactForce_femur_lat_meniscii_r.femur_lat_r.force.Z	contactForce_femur_lat_meniscii_r.femur_lat_r.torque.X	contactForce_femur_lat_meniscii_r.femur_lat_r.torque.Y	contactForce_femur_lat_meniscii_r.femur_lat_r.torque.Z	contactForce_femur_lat_meniscii_r.meniscus_lat_r.force.X	contactForce_femur_lat_meniscii_r.meniscus_lat_r.force.Y	contactForce_femur_lat_meniscii_r.meniscus_lat_r.force.Z	contactForce_femur_lat_meniscii_r.meniscus_lat_r.torque.X	contactForce_femur_lat_meniscii_r.meniscus_lat_r.torque.Y	contactForce_femur_lat_meniscii_r.meniscus_lat_r.torque.Z	contactForce_femur_med_meniscii_r.femur_med_r.force.X	contactForce_femur_med_meniscii_r.femur_med_r.force.Y	contactForce_femur_med_meniscii_r.femur_med_r.force.Z	contactForce_femur_med_meniscii_r.femur_med_r.torque.X	contactForce_femur_med_meniscii_r.femur_med_r.torque.Y	contactForce_femur_med_meniscii_r.femur_med_r.torque.Z	contactForce_femur_med_meniscii_r.meniscus_med_r.force.X	contactForce_femur_med_meniscii_r.meniscus_med_r.force.Y	contactForce_femur_med_meniscii_r.meniscus_med_r.force.Z	contactForce_femur_med_meniscii_r.meniscus_med_r.torque.X	contactForce_femur_med_meniscii_r.meniscus_med_r.torque.Y	contactForce_femur_med_meniscii_r.meniscus_med_r.torque.Z	aACL_R	pACL_R	aPCL_R	pPCL_R	aMCL_R	aLCL_R	aPCL_L	pPCL_L	aMCL_L	aLCL_L
      0.06683642	    171.60538940	    138.52798494	    169.20547234	    232.39939824	     73.95844026	     66.64029960	     44.98553060	     24.80806327	     27.83553606	     34.11640068	     13.10337610	      4.70946445	      2.33199778	      1.69201132	      0.35600682	     -0.10682196	     -0.06027051	      0.98445368	     -2.33199778	     -1.69201132	     -0.35600682	     -0.04093238	      0.07382241	     -0.08100795	      0.00000000	      0.00000000	      0.00000000	      0.00000000	      0.00000000	      0.00000000	      0.00000000	      0.00000000	      0.00000000	      0.00000000	      0.00000000	      0.00000000	     -9.42112393	    446.41121121	    -68.64945490	     18.06675219	     -0.22456471	     -3.51150178	      9.42112393	   -446.41121121	     68.64945490	     10.45917200	      0.48534983	      1.29256408	     77.74894870	    481.71128157	     45.92808601	     -9.02815652	     -2.54883143	     34.02704294	    -77.74894870	   -481.71128157	    -45.92808601	     -5.89263251	      1.99315531	     -2.94037594	      0.00000000	      0.00000000	      0.00000000	      0.00000000	      0.00000000	      0.00000000	      0.00000000	      0.00000000	     18.33897594	     34.63595778
      0.06803105	    171.01394665	    138.27387915	    168.63531204	    231.87415689	     74.09038752	     66.68095747	     44.71588188	     28.97601616	     27.94540742	     34.38058424	     13.22645050	      4.63759479	      2.53561228	      1.87930299	      0.39536338	     -0.11845632	     -0.06573935	      1.07071550	     -2.53561228	     -1.87930299	     -0.39536338	     -0.04575385	      0.08060944	     -0.08825753	      0.00000000	      0.00000000	      0.00000000	      0.00000000	      0.00000000	      0.00000000	      0.00000000	      0.00000000	      0.00000000	      0.00000000	      0.00000000	      0.00000000	    -24.72490480	    445.20216150	    -66.99014019	     17.42071855	     -0.62308597	    -10.04132176	     24.72490480	   -445.20216150	     66.99014019	     10.46215097	      0.96920187	      2.05044806	     58.88468775	    487.64759382	     44.43585150	     -8.24930004	     -2.07046181	     25.93797515	    -58.88468775	   -487.64759382	    -44.43585150	     -6.07606087	      1.61461409	     -1.95199509	      0.00000000	      0.00000000	      0.00000000	      0.00000000	      0.00000000	      0.00000000	      7.68643719	      0.00000000	     18.15969745	     34.93806210
      0.06882950	    170.57773612	    138.07888802	    168.23977611	    231.68064991	     74.11471072	     66.69237609	     44.50413116	     23.84445889	     28.28995212	     33.64429727	     13.31805060	      4.59060313	      2.70138674	      2.00023051	      0.43802622	     -0.13332942	     -0.07014277	      1.14097618	     -2.70138674	     -2.00023051	     -0.43802622	     -0.04820782	      0.08608287	     -0.09419310	      0.00000000	      0.00000000	      0.00000000	      0.00000000	      0.00000000	      0.00000000	      0.00000000	      0.00000000	      0.00000000	      0.00000000	      0.00000000	      0.00000000	     -5.80447839	    435.86044195	    -67.50194206	     17.87274965	     -0.13527663	     -2.08101099	      5.80447839	   -435.86044195	     67.50194206	     10.15210367	      0.38818839	      1.30421221	     74.75187376	    483.88727290	     45.13156859	     -8.62736696	     -2.42270638	     32.65310719	    -74.75187376	   -483.88727290	    -45.13156859	     -5.98619733	      1.87665431	     -2.59390462	      0.00000000	      0.00000000	      0.00000000	      0.00000000	      0.00000000	      0.00000000	      6.73571929	      0.00000000	     18.47980893	     34.39263469
      0.06962795	    170.13443302	    137.88984482	    167.85098832	    231.33451038	     74.17591974	     66.70555574	     44.31732513	     27.67820717	     27.87812080	     34.04271828	     13.41913524	      4.54578952	      2.84647961	      2.13449963	      0.47537693	     -0.14562287	     -0.07398301	      1.20247859	     -2.84647961	     -2.13449963	     -0.47537693	     -0.05127501	      0.09088367	     -0.09937219	      0.00000000	      0.00000000	      0.00000000	      0.00000000	      0.00000000	      0.00000000	      0.00000000	      0.00000000	      0.00000000	      0.00000000	      0.00000000	      0.00000000	    -11.22100102	    433.71156651	    -66.97879565	     17.71133672	     -0.27032630	     -4.41651295	     11.22100102	   -433.71156651	     66.97879565	     10.09963396	      0.55630808	      1.60915695	     66.41107270	    485.77111237	     44.31067312	     -8.22948616	     -2.21111772	     29.02036490	    -66.41107270	   -485.77111237	    -44.31067312	     -6.06489216	      1.70859952	     -2.08748990	      0.00000000	      0.00000000	      0.00000000	      0.00000000	      0.00000000	      0.00000000	      6.07326393	      0.00000000	     18.71784441	     34.01555235
